<mxfile host="app.diagrams.net" agent="Mozilla/5.0 (Windows NT 10.0; Win64; x64) AppleWebKit/537.36 (KHTML, like Gecko) Chrome/136.0.0.0 Safari/537.36" version="26.2.12">
  <diagram name="Page-1" id="KDYO7sUvReFHzPup9l66">
    <mxGraphModel dx="3307" dy="2393" grid="1" gridSize="10" guides="1" tooltips="1" connect="1" arrows="1" fold="1" page="1" pageScale="1" pageWidth="850" pageHeight="1100" math="0" shadow="0">
      <root>
        <mxCell id="0" />
        <mxCell id="1" parent="0" />
        <mxCell id="rqfXACrkqsJ0wmnOGuuW-1" value="&lt;b&gt;Departments&lt;/b&gt;" style="rounded=0;whiteSpace=wrap;html=1;" vertex="1" parent="1">
          <mxGeometry x="320" y="70" width="130" height="50" as="geometry" />
        </mxCell>
        <mxCell id="rqfXACrkqsJ0wmnOGuuW-2" value="&lt;b&gt;DEPTNAME&lt;/b&gt;" style="ellipse;whiteSpace=wrap;html=1;" vertex="1" parent="1">
          <mxGeometry x="480" y="-10" width="120" height="50" as="geometry" />
        </mxCell>
        <mxCell id="rqfXACrkqsJ0wmnOGuuW-3" value="" style="endArrow=none;html=1;rounded=0;" edge="1" parent="1">
          <mxGeometry width="50" height="50" relative="1" as="geometry">
            <mxPoint x="430" y="70" as="sourcePoint" />
            <mxPoint x="480" y="20" as="targetPoint" />
          </mxGeometry>
        </mxCell>
        <mxCell id="rqfXACrkqsJ0wmnOGuuW-4" value="&lt;b&gt;DEPTID&lt;/b&gt;" style="ellipse;whiteSpace=wrap;html=1;" vertex="1" parent="1">
          <mxGeometry x="200" y="-10" width="120" height="50" as="geometry" />
        </mxCell>
        <mxCell id="rqfXACrkqsJ0wmnOGuuW-5" value="" style="endArrow=none;html=1;rounded=0;entryX=0.25;entryY=0;entryDx=0;entryDy=0;" edge="1" parent="1" target="rqfXACrkqsJ0wmnOGuuW-1">
          <mxGeometry width="50" height="50" relative="1" as="geometry">
            <mxPoint x="310" y="30" as="sourcePoint" />
            <mxPoint x="360" y="80" as="targetPoint" />
          </mxGeometry>
        </mxCell>
        <mxCell id="rqfXACrkqsJ0wmnOGuuW-6" value="&lt;b&gt;Offers&lt;/b&gt;" style="rhombus;whiteSpace=wrap;html=1;" vertex="1" parent="1">
          <mxGeometry x="345" y="280" width="80" height="80" as="geometry" />
        </mxCell>
        <mxCell id="rqfXACrkqsJ0wmnOGuuW-7" value="" style="endArrow=none;html=1;rounded=0;exitX=0.5;exitY=1;exitDx=0;exitDy=0;" edge="1" parent="1" source="rqfXACrkqsJ0wmnOGuuW-1">
          <mxGeometry width="50" height="50" relative="1" as="geometry">
            <mxPoint x="384.23" y="130" as="sourcePoint" />
            <mxPoint x="384" y="280" as="targetPoint" />
          </mxGeometry>
        </mxCell>
        <mxCell id="rqfXACrkqsJ0wmnOGuuW-8" value="&lt;b&gt;STUDIES_IN&lt;/b&gt;" style="rhombus;whiteSpace=wrap;html=1;" vertex="1" parent="1">
          <mxGeometry x="200" y="150" width="130" height="60" as="geometry" />
        </mxCell>
        <mxCell id="rqfXACrkqsJ0wmnOGuuW-9" value="&lt;b&gt;WORKS IN&lt;/b&gt;" style="rhombus;whiteSpace=wrap;html=1;" vertex="1" parent="1">
          <mxGeometry x="470" y="150" width="130" height="60" as="geometry" />
        </mxCell>
        <mxCell id="rqfXACrkqsJ0wmnOGuuW-10" value="" style="endArrow=none;html=1;rounded=0;exitX=0.5;exitY=0;exitDx=0;exitDy=0;" edge="1" parent="1" source="rqfXACrkqsJ0wmnOGuuW-8">
          <mxGeometry width="50" height="50" relative="1" as="geometry">
            <mxPoint x="260" y="140" as="sourcePoint" />
            <mxPoint x="320" y="100" as="targetPoint" />
          </mxGeometry>
        </mxCell>
        <mxCell id="rqfXACrkqsJ0wmnOGuuW-69" value="&lt;b&gt;1&lt;/b&gt;" style="edgeLabel;html=1;align=center;verticalAlign=middle;resizable=0;points=[];" vertex="1" connectable="0" parent="rqfXACrkqsJ0wmnOGuuW-10">
          <mxGeometry x="0.1929" y="4" relative="1" as="geometry">
            <mxPoint x="-15" y="3" as="offset" />
          </mxGeometry>
        </mxCell>
        <mxCell id="rqfXACrkqsJ0wmnOGuuW-11" value="" style="endArrow=none;html=1;rounded=0;entryX=0.5;entryY=0;entryDx=0;entryDy=0;" edge="1" parent="1" target="rqfXACrkqsJ0wmnOGuuW-9">
          <mxGeometry width="50" height="50" relative="1" as="geometry">
            <mxPoint x="450" y="100" as="sourcePoint" />
            <mxPoint x="540" y="150" as="targetPoint" />
          </mxGeometry>
        </mxCell>
        <mxCell id="rqfXACrkqsJ0wmnOGuuW-13" value="&lt;b&gt;Instructors&lt;/b&gt;" style="rounded=0;whiteSpace=wrap;html=1;" vertex="1" parent="1">
          <mxGeometry x="600" y="240" width="130" height="50" as="geometry" />
        </mxCell>
        <mxCell id="rqfXACrkqsJ0wmnOGuuW-14" value="" style="endArrow=none;html=1;rounded=0;" edge="1" parent="1">
          <mxGeometry width="50" height="50" relative="1" as="geometry">
            <mxPoint x="600" y="180" as="sourcePoint" />
            <mxPoint x="640" y="240" as="targetPoint" />
          </mxGeometry>
        </mxCell>
        <mxCell id="rqfXACrkqsJ0wmnOGuuW-15" value="&lt;b&gt;INSTRUCTORID&lt;/b&gt;" style="ellipse;whiteSpace=wrap;html=1;" vertex="1" parent="1">
          <mxGeometry x="680" y="120" width="120" height="50" as="geometry" />
        </mxCell>
        <mxCell id="rqfXACrkqsJ0wmnOGuuW-16" value="&lt;b&gt;NAME&lt;/b&gt;" style="ellipse;whiteSpace=wrap;html=1;" vertex="1" parent="1">
          <mxGeometry x="770" y="180" width="120" height="50" as="geometry" />
        </mxCell>
        <mxCell id="rqfXACrkqsJ0wmnOGuuW-17" value="&lt;b&gt;DEPTID&lt;/b&gt;" style="ellipse;whiteSpace=wrap;html=1;" vertex="1" parent="1">
          <mxGeometry x="820" y="260" width="120" height="50" as="geometry" />
        </mxCell>
        <mxCell id="rqfXACrkqsJ0wmnOGuuW-18" value="&lt;b&gt;SALARY&lt;/b&gt;" style="ellipse;whiteSpace=wrap;html=1;" vertex="1" parent="1">
          <mxGeometry x="750" y="320" width="120" height="50" as="geometry" />
        </mxCell>
        <mxCell id="rqfXACrkqsJ0wmnOGuuW-19" value="" style="endArrow=none;html=1;rounded=0;entryX=0;entryY=0.5;entryDx=0;entryDy=0;exitX=1;exitY=0.5;exitDx=0;exitDy=0;" edge="1" parent="1" source="rqfXACrkqsJ0wmnOGuuW-13" target="rqfXACrkqsJ0wmnOGuuW-17">
          <mxGeometry width="50" height="50" relative="1" as="geometry">
            <mxPoint x="730" y="270" as="sourcePoint" />
            <mxPoint x="780" y="220" as="targetPoint" />
          </mxGeometry>
        </mxCell>
        <mxCell id="rqfXACrkqsJ0wmnOGuuW-20" value="" style="endArrow=none;html=1;rounded=0;exitX=0;exitY=0.5;exitDx=0;exitDy=0;entryX=1;entryY=1;entryDx=0;entryDy=0;" edge="1" parent="1" source="rqfXACrkqsJ0wmnOGuuW-18" target="rqfXACrkqsJ0wmnOGuuW-13">
          <mxGeometry width="50" height="50" relative="1" as="geometry">
            <mxPoint x="660" y="345" as="sourcePoint" />
            <mxPoint x="700" y="320" as="targetPoint" />
          </mxGeometry>
        </mxCell>
        <mxCell id="rqfXACrkqsJ0wmnOGuuW-21" value="" style="endArrow=none;html=1;rounded=0;entryX=0;entryY=0.5;entryDx=0;entryDy=0;" edge="1" parent="1" target="rqfXACrkqsJ0wmnOGuuW-16">
          <mxGeometry width="50" height="50" relative="1" as="geometry">
            <mxPoint x="700" y="240" as="sourcePoint" />
            <mxPoint x="750" y="190" as="targetPoint" />
          </mxGeometry>
        </mxCell>
        <mxCell id="rqfXACrkqsJ0wmnOGuuW-22" value="" style="endArrow=none;html=1;rounded=0;entryX=0.5;entryY=1;entryDx=0;entryDy=0;" edge="1" parent="1" target="rqfXACrkqsJ0wmnOGuuW-15">
          <mxGeometry width="50" height="50" relative="1" as="geometry">
            <mxPoint x="660" y="240" as="sourcePoint" />
            <mxPoint x="710" y="190" as="targetPoint" />
          </mxGeometry>
        </mxCell>
        <mxCell id="rqfXACrkqsJ0wmnOGuuW-23" value="&lt;b&gt;Teaches&lt;/b&gt;" style="rhombus;whiteSpace=wrap;html=1;" vertex="1" parent="1">
          <mxGeometry x="595" y="390" width="140" height="60" as="geometry" />
        </mxCell>
        <mxCell id="rqfXACrkqsJ0wmnOGuuW-24" value="" style="endArrow=none;html=1;rounded=0;exitX=0.5;exitY=0;exitDx=0;exitDy=0;entryX=0.5;entryY=1;entryDx=0;entryDy=0;" edge="1" parent="1" source="rqfXACrkqsJ0wmnOGuuW-23" target="rqfXACrkqsJ0wmnOGuuW-13">
          <mxGeometry width="50" height="50" relative="1" as="geometry">
            <mxPoint x="610" y="350" as="sourcePoint" />
            <mxPoint x="660" y="300" as="targetPoint" />
          </mxGeometry>
        </mxCell>
        <mxCell id="rqfXACrkqsJ0wmnOGuuW-25" value="&lt;b&gt;Courses&lt;/b&gt;" style="rounded=0;whiteSpace=wrap;html=1;" vertex="1" parent="1">
          <mxGeometry x="605" y="520" width="120" height="50" as="geometry" />
        </mxCell>
        <mxCell id="rqfXACrkqsJ0wmnOGuuW-26" value="" style="endArrow=none;html=1;rounded=0;entryX=0.5;entryY=1;entryDx=0;entryDy=0;exitX=0.5;exitY=0;exitDx=0;exitDy=0;" edge="1" parent="1" source="rqfXACrkqsJ0wmnOGuuW-25" target="rqfXACrkqsJ0wmnOGuuW-23">
          <mxGeometry width="50" height="50" relative="1" as="geometry">
            <mxPoint x="610" y="510" as="sourcePoint" />
            <mxPoint x="660" y="460" as="targetPoint" />
          </mxGeometry>
        </mxCell>
        <mxCell id="rqfXACrkqsJ0wmnOGuuW-27" value="&lt;b&gt;COURSEID&lt;/b&gt;" style="ellipse;whiteSpace=wrap;html=1;" vertex="1" parent="1">
          <mxGeometry x="460" y="580" width="120" height="50" as="geometry" />
        </mxCell>
        <mxCell id="rqfXACrkqsJ0wmnOGuuW-28" value="&lt;b&gt;COURSENAME&lt;/b&gt;" style="ellipse;whiteSpace=wrap;html=1;" vertex="1" parent="1">
          <mxGeometry x="550" y="630" width="120" height="50" as="geometry" />
        </mxCell>
        <mxCell id="rqfXACrkqsJ0wmnOGuuW-29" value="&lt;b&gt;CREDITS&lt;/b&gt;" style="ellipse;whiteSpace=wrap;html=1;" vertex="1" parent="1">
          <mxGeometry x="700" y="630" width="120" height="50" as="geometry" />
        </mxCell>
        <mxCell id="rqfXACrkqsJ0wmnOGuuW-30" value="&lt;b&gt;DEPTID&lt;/b&gt;" style="ellipse;whiteSpace=wrap;html=1;" vertex="1" parent="1">
          <mxGeometry x="780" y="570" width="120" height="50" as="geometry" />
        </mxCell>
        <mxCell id="rqfXACrkqsJ0wmnOGuuW-31" value="&lt;b&gt;INSTRUCTORID&lt;/b&gt;" style="ellipse;whiteSpace=wrap;html=1;" vertex="1" parent="1">
          <mxGeometry x="780" y="500" width="120" height="50" as="geometry" />
        </mxCell>
        <mxCell id="rqfXACrkqsJ0wmnOGuuW-32" value="" style="endArrow=none;html=1;rounded=0;entryX=0.25;entryY=1;entryDx=0;entryDy=0;exitX=0.5;exitY=0;exitDx=0;exitDy=0;" edge="1" parent="1" source="rqfXACrkqsJ0wmnOGuuW-28" target="rqfXACrkqsJ0wmnOGuuW-25">
          <mxGeometry width="50" height="50" relative="1" as="geometry">
            <mxPoint x="585" y="630" as="sourcePoint" />
            <mxPoint x="635" y="580" as="targetPoint" />
          </mxGeometry>
        </mxCell>
        <mxCell id="rqfXACrkqsJ0wmnOGuuW-33" value="" style="endArrow=none;html=1;rounded=0;entryX=0.75;entryY=1;entryDx=0;entryDy=0;exitX=0.5;exitY=0;exitDx=0;exitDy=0;" edge="1" parent="1" source="rqfXACrkqsJ0wmnOGuuW-29" target="rqfXACrkqsJ0wmnOGuuW-25">
          <mxGeometry width="50" height="50" relative="1" as="geometry">
            <mxPoint x="685" y="620" as="sourcePoint" />
            <mxPoint x="735" y="570" as="targetPoint" />
          </mxGeometry>
        </mxCell>
        <mxCell id="rqfXACrkqsJ0wmnOGuuW-34" value="" style="endArrow=none;html=1;rounded=0;entryX=1;entryY=0.5;entryDx=0;entryDy=0;exitX=0;exitY=0;exitDx=0;exitDy=0;" edge="1" parent="1" source="rqfXACrkqsJ0wmnOGuuW-30" target="rqfXACrkqsJ0wmnOGuuW-25">
          <mxGeometry width="50" height="50" relative="1" as="geometry">
            <mxPoint x="640" y="820" as="sourcePoint" />
            <mxPoint x="730" y="750" as="targetPoint" />
          </mxGeometry>
        </mxCell>
        <mxCell id="rqfXACrkqsJ0wmnOGuuW-35" value="" style="endArrow=none;html=1;rounded=0;entryX=0;entryY=0.5;entryDx=0;entryDy=0;exitX=1;exitY=0.25;exitDx=0;exitDy=0;" edge="1" parent="1" source="rqfXACrkqsJ0wmnOGuuW-25" target="rqfXACrkqsJ0wmnOGuuW-31">
          <mxGeometry width="50" height="50" relative="1" as="geometry">
            <mxPoint x="480" y="810" as="sourcePoint" />
            <mxPoint x="530" y="760" as="targetPoint" />
          </mxGeometry>
        </mxCell>
        <mxCell id="rqfXACrkqsJ0wmnOGuuW-36" value="" style="endArrow=none;html=1;rounded=0;entryX=0;entryY=0.5;entryDx=0;entryDy=0;exitX=1;exitY=0;exitDx=0;exitDy=0;" edge="1" parent="1" source="rqfXACrkqsJ0wmnOGuuW-27" target="rqfXACrkqsJ0wmnOGuuW-25">
          <mxGeometry width="50" height="50" relative="1" as="geometry">
            <mxPoint x="495" y="575" as="sourcePoint" />
            <mxPoint x="545" y="525" as="targetPoint" />
          </mxGeometry>
        </mxCell>
        <mxCell id="rqfXACrkqsJ0wmnOGuuW-38" value="" style="endArrow=none;html=1;rounded=0;entryX=1;entryY=0.5;entryDx=0;entryDy=0;exitX=0.25;exitY=0;exitDx=0;exitDy=0;" edge="1" parent="1" source="rqfXACrkqsJ0wmnOGuuW-25" target="rqfXACrkqsJ0wmnOGuuW-6">
          <mxGeometry width="50" height="50" relative="1" as="geometry">
            <mxPoint x="390" y="480" as="sourcePoint" />
            <mxPoint x="440" y="430" as="targetPoint" />
          </mxGeometry>
        </mxCell>
        <mxCell id="rqfXACrkqsJ0wmnOGuuW-39" value="&lt;b&gt;Students&lt;/b&gt;" style="rounded=0;whiteSpace=wrap;html=1;" vertex="1" parent="1">
          <mxGeometry x="40" y="240" width="130" height="50" as="geometry" />
        </mxCell>
        <mxCell id="rqfXACrkqsJ0wmnOGuuW-40" value="" style="endArrow=none;html=1;rounded=0;exitX=1;exitY=0.25;exitDx=0;exitDy=0;entryX=0.5;entryY=1;entryDx=0;entryDy=0;" edge="1" parent="1" source="rqfXACrkqsJ0wmnOGuuW-39" target="rqfXACrkqsJ0wmnOGuuW-8">
          <mxGeometry width="50" height="50" relative="1" as="geometry">
            <mxPoint x="190" y="270" as="sourcePoint" />
            <mxPoint x="240" y="220" as="targetPoint" />
          </mxGeometry>
        </mxCell>
        <mxCell id="rqfXACrkqsJ0wmnOGuuW-41" value="&lt;b&gt;STUDENTID&lt;/b&gt;" style="ellipse;whiteSpace=wrap;html=1;" vertex="1" parent="1">
          <mxGeometry x="70" y="130" width="120" height="50" as="geometry" />
        </mxCell>
        <mxCell id="rqfXACrkqsJ0wmnOGuuW-42" value="&lt;b&gt;NAME&lt;/b&gt;" style="ellipse;whiteSpace=wrap;html=1;" vertex="1" parent="1">
          <mxGeometry x="-40" y="160" width="120" height="50" as="geometry" />
        </mxCell>
        <mxCell id="rqfXACrkqsJ0wmnOGuuW-43" value="&lt;b&gt;DOB&lt;/b&gt;" style="ellipse;whiteSpace=wrap;html=1;" vertex="1" parent="1">
          <mxGeometry x="-120" y="210" width="120" height="50" as="geometry" />
        </mxCell>
        <mxCell id="rqfXACrkqsJ0wmnOGuuW-44" value="&lt;b&gt;GENDER&lt;/b&gt;" style="ellipse;whiteSpace=wrap;html=1;" vertex="1" parent="1">
          <mxGeometry x="-140" y="270" width="120" height="50" as="geometry" />
        </mxCell>
        <mxCell id="rqfXACrkqsJ0wmnOGuuW-45" value="&lt;b&gt;DEPTID&lt;/b&gt;" style="ellipse;whiteSpace=wrap;html=1;" vertex="1" parent="1">
          <mxGeometry x="-70" y="320" width="120" height="50" as="geometry" />
        </mxCell>
        <mxCell id="rqfXACrkqsJ0wmnOGuuW-47" value="" style="endArrow=none;html=1;rounded=0;exitX=1;exitY=0;exitDx=0;exitDy=0;entryX=0;entryY=1;entryDx=0;entryDy=0;" edge="1" parent="1" source="rqfXACrkqsJ0wmnOGuuW-45" target="rqfXACrkqsJ0wmnOGuuW-39">
          <mxGeometry width="50" height="50" relative="1" as="geometry">
            <mxPoint x="80" y="400" as="sourcePoint" />
            <mxPoint x="130" y="350" as="targetPoint" />
          </mxGeometry>
        </mxCell>
        <mxCell id="rqfXACrkqsJ0wmnOGuuW-48" value="" style="endArrow=none;html=1;rounded=0;entryX=0;entryY=0.25;entryDx=0;entryDy=0;exitX=1;exitY=0.5;exitDx=0;exitDy=0;" edge="1" parent="1" source="rqfXACrkqsJ0wmnOGuuW-43" target="rqfXACrkqsJ0wmnOGuuW-39">
          <mxGeometry width="50" height="50" relative="1" as="geometry">
            <mxPoint x="150" y="400" as="sourcePoint" />
            <mxPoint x="200" y="350" as="targetPoint" />
          </mxGeometry>
        </mxCell>
        <mxCell id="rqfXACrkqsJ0wmnOGuuW-49" value="" style="endArrow=none;html=1;rounded=0;exitX=0.25;exitY=0;exitDx=0;exitDy=0;" edge="1" parent="1" source="rqfXACrkqsJ0wmnOGuuW-39" target="rqfXACrkqsJ0wmnOGuuW-42">
          <mxGeometry width="50" height="50" relative="1" as="geometry">
            <mxPoint x="160" y="410" as="sourcePoint" />
            <mxPoint x="210" y="360" as="targetPoint" />
          </mxGeometry>
        </mxCell>
        <mxCell id="rqfXACrkqsJ0wmnOGuuW-50" value="" style="endArrow=none;html=1;rounded=0;entryX=0.5;entryY=1;entryDx=0;entryDy=0;exitX=0.5;exitY=0;exitDx=0;exitDy=0;" edge="1" parent="1" source="rqfXACrkqsJ0wmnOGuuW-39" target="rqfXACrkqsJ0wmnOGuuW-41">
          <mxGeometry width="50" height="50" relative="1" as="geometry">
            <mxPoint x="130" y="380" as="sourcePoint" />
            <mxPoint x="180" y="330" as="targetPoint" />
          </mxGeometry>
        </mxCell>
        <mxCell id="rqfXACrkqsJ0wmnOGuuW-51" value="" style="endArrow=none;html=1;rounded=0;entryX=0;entryY=0.5;entryDx=0;entryDy=0;exitX=1;exitY=0.5;exitDx=0;exitDy=0;" edge="1" parent="1" source="rqfXACrkqsJ0wmnOGuuW-44" target="rqfXACrkqsJ0wmnOGuuW-39">
          <mxGeometry width="50" height="50" relative="1" as="geometry">
            <mxPoint x="180" y="430" as="sourcePoint" />
            <mxPoint x="230" y="380" as="targetPoint" />
          </mxGeometry>
        </mxCell>
        <mxCell id="rqfXACrkqsJ0wmnOGuuW-52" value="&lt;b&gt;ENROLLED_IN&lt;/b&gt;" style="rhombus;whiteSpace=wrap;html=1;" vertex="1" parent="1">
          <mxGeometry x="39" y="390" width="130" height="60" as="geometry" />
        </mxCell>
        <mxCell id="rqfXACrkqsJ0wmnOGuuW-53" value="" style="endArrow=none;html=1;rounded=0;entryX=0.5;entryY=1;entryDx=0;entryDy=0;exitX=0.5;exitY=0;exitDx=0;exitDy=0;" edge="1" parent="1" source="rqfXACrkqsJ0wmnOGuuW-52" target="rqfXACrkqsJ0wmnOGuuW-39">
          <mxGeometry width="50" height="50" relative="1" as="geometry">
            <mxPoint x="170" y="380" as="sourcePoint" />
            <mxPoint x="220" y="330" as="targetPoint" />
          </mxGeometry>
        </mxCell>
        <mxCell id="rqfXACrkqsJ0wmnOGuuW-54" value="&lt;b&gt;Students&lt;/b&gt;" style="rounded=0;whiteSpace=wrap;html=1;" vertex="1" parent="1">
          <mxGeometry x="110" y="520" width="130" height="50" as="geometry" />
        </mxCell>
        <mxCell id="rqfXACrkqsJ0wmnOGuuW-55" value="" style="endArrow=none;html=1;rounded=0;entryX=0.5;entryY=1;entryDx=0;entryDy=0;exitX=0.5;exitY=0;exitDx=0;exitDy=0;" edge="1" parent="1" source="rqfXACrkqsJ0wmnOGuuW-54" target="rqfXACrkqsJ0wmnOGuuW-52">
          <mxGeometry width="50" height="50" relative="1" as="geometry">
            <mxPoint x="40" y="530" as="sourcePoint" />
            <mxPoint x="90" y="480" as="targetPoint" />
          </mxGeometry>
        </mxCell>
        <mxCell id="rqfXACrkqsJ0wmnOGuuW-56" value="&lt;b&gt;DEPTID&lt;/b&gt;" style="ellipse;whiteSpace=wrap;html=1;" vertex="1" parent="1">
          <mxGeometry x="70" y="640" width="120" height="50" as="geometry" />
        </mxCell>
        <mxCell id="rqfXACrkqsJ0wmnOGuuW-57" value="&lt;b&gt;DEPTID&lt;/b&gt;" style="ellipse;whiteSpace=wrap;html=1;" vertex="1" parent="1">
          <mxGeometry x="200" y="620" width="120" height="50" as="geometry" />
        </mxCell>
        <mxCell id="rqfXACrkqsJ0wmnOGuuW-58" value="&lt;b&gt;DEPTID&lt;/b&gt;" style="ellipse;whiteSpace=wrap;html=1;" vertex="1" parent="1">
          <mxGeometry x="270" y="560" width="120" height="50" as="geometry" />
        </mxCell>
        <mxCell id="rqfXACrkqsJ0wmnOGuuW-59" value="&lt;b&gt;DEPTID&lt;/b&gt;" style="ellipse;whiteSpace=wrap;html=1;" vertex="1" parent="1">
          <mxGeometry x="-30" y="590" width="120" height="50" as="geometry" />
        </mxCell>
        <mxCell id="rqfXACrkqsJ0wmnOGuuW-60" value="&lt;b&gt;DEPTID&lt;/b&gt;" style="ellipse;whiteSpace=wrap;html=1;" vertex="1" parent="1">
          <mxGeometry x="-60" y="520" width="120" height="50" as="geometry" />
        </mxCell>
        <mxCell id="rqfXACrkqsJ0wmnOGuuW-61" value="" style="endArrow=none;html=1;rounded=0;exitX=1;exitY=0.5;exitDx=0;exitDy=0;entryX=0;entryY=0.75;entryDx=0;entryDy=0;" edge="1" parent="1" source="rqfXACrkqsJ0wmnOGuuW-60" target="rqfXACrkqsJ0wmnOGuuW-54">
          <mxGeometry width="50" height="50" relative="1" as="geometry">
            <mxPoint x="110" y="490" as="sourcePoint" />
            <mxPoint x="160" y="440" as="targetPoint" />
          </mxGeometry>
        </mxCell>
        <mxCell id="rqfXACrkqsJ0wmnOGuuW-62" value="" style="endArrow=none;html=1;rounded=0;entryX=0;entryY=1;entryDx=0;entryDy=0;exitX=1;exitY=0;exitDx=0;exitDy=0;" edge="1" parent="1" source="rqfXACrkqsJ0wmnOGuuW-59" target="rqfXACrkqsJ0wmnOGuuW-54">
          <mxGeometry width="50" height="50" relative="1" as="geometry">
            <mxPoint x="-30" y="740" as="sourcePoint" />
            <mxPoint x="20" y="690" as="targetPoint" />
          </mxGeometry>
        </mxCell>
        <mxCell id="rqfXACrkqsJ0wmnOGuuW-63" value="" style="endArrow=none;html=1;rounded=0;entryX=0.25;entryY=1;entryDx=0;entryDy=0;exitX=0.5;exitY=0;exitDx=0;exitDy=0;" edge="1" parent="1" source="rqfXACrkqsJ0wmnOGuuW-56" target="rqfXACrkqsJ0wmnOGuuW-54">
          <mxGeometry width="50" height="50" relative="1" as="geometry">
            <mxPoint x="110" y="630" as="sourcePoint" />
            <mxPoint x="160" y="580" as="targetPoint" />
          </mxGeometry>
        </mxCell>
        <mxCell id="rqfXACrkqsJ0wmnOGuuW-64" value="" style="endArrow=none;html=1;rounded=0;entryX=0.75;entryY=1;entryDx=0;entryDy=0;exitX=0.5;exitY=0;exitDx=0;exitDy=0;" edge="1" parent="1" source="rqfXACrkqsJ0wmnOGuuW-57" target="rqfXACrkqsJ0wmnOGuuW-54">
          <mxGeometry width="50" height="50" relative="1" as="geometry">
            <mxPoint x="190" y="630" as="sourcePoint" />
            <mxPoint x="240" y="580" as="targetPoint" />
          </mxGeometry>
        </mxCell>
        <mxCell id="rqfXACrkqsJ0wmnOGuuW-65" value="" style="endArrow=none;html=1;rounded=0;exitX=1;exitY=0.75;exitDx=0;exitDy=0;entryX=0;entryY=0.5;entryDx=0;entryDy=0;" edge="1" parent="1" source="rqfXACrkqsJ0wmnOGuuW-54" target="rqfXACrkqsJ0wmnOGuuW-58">
          <mxGeometry width="50" height="50" relative="1" as="geometry">
            <mxPoint x="260" y="480" as="sourcePoint" />
            <mxPoint x="310" y="430" as="targetPoint" />
          </mxGeometry>
        </mxCell>
        <mxCell id="rqfXACrkqsJ0wmnOGuuW-66" value="&lt;b&gt;HAS_ENROLLMENT&lt;/b&gt;" style="rhombus;whiteSpace=wrap;html=1;" vertex="1" parent="1">
          <mxGeometry x="338" y="440" width="140" height="60" as="geometry" />
        </mxCell>
        <mxCell id="rqfXACrkqsJ0wmnOGuuW-67" value="" style="endArrow=none;html=1;rounded=0;exitX=1;exitY=0;exitDx=0;exitDy=0;entryX=0;entryY=0.5;entryDx=0;entryDy=0;" edge="1" parent="1" source="rqfXACrkqsJ0wmnOGuuW-54" target="rqfXACrkqsJ0wmnOGuuW-66">
          <mxGeometry width="50" height="50" relative="1" as="geometry">
            <mxPoint x="190" y="500" as="sourcePoint" />
            <mxPoint x="240" y="450" as="targetPoint" />
          </mxGeometry>
        </mxCell>
        <mxCell id="rqfXACrkqsJ0wmnOGuuW-68" value="" style="endArrow=none;html=1;rounded=0;entryX=0;entryY=0;entryDx=0;entryDy=0;exitX=1;exitY=0.5;exitDx=0;exitDy=0;" edge="1" parent="1" source="rqfXACrkqsJ0wmnOGuuW-66" target="rqfXACrkqsJ0wmnOGuuW-25">
          <mxGeometry width="50" height="50" relative="1" as="geometry">
            <mxPoint x="420" y="580" as="sourcePoint" />
            <mxPoint x="470" y="530" as="targetPoint" />
          </mxGeometry>
        </mxCell>
        <mxCell id="rqfXACrkqsJ0wmnOGuuW-70" value="&lt;b&gt;1&lt;/b&gt;" style="edgeLabel;html=1;align=center;verticalAlign=middle;resizable=0;points=[];" vertex="1" connectable="0" parent="1">
          <mxGeometry x="289.86667205343633" y="130.44263677057847" as="geometry">
            <mxPoint x="360" y="183" as="offset" />
          </mxGeometry>
        </mxCell>
        <mxCell id="rqfXACrkqsJ0wmnOGuuW-71" value="&lt;b&gt;1&lt;/b&gt;" style="edgeLabel;html=1;align=center;verticalAlign=middle;resizable=0;points=[];" vertex="1" connectable="0" parent="1">
          <mxGeometry x="299.86667205343633" y="140.44263677057847" as="geometry">
            <mxPoint x="198" y="-22" as="offset" />
          </mxGeometry>
        </mxCell>
        <mxCell id="rqfXACrkqsJ0wmnOGuuW-72" value="&lt;b&gt;1&lt;/b&gt;" style="edgeLabel;html=1;align=center;verticalAlign=middle;resizable=0;points=[];" vertex="1" connectable="0" parent="1">
          <mxGeometry x="259.9966720534363" y="170.00263677057848" as="geometry">
            <mxPoint x="138" y="62" as="offset" />
          </mxGeometry>
        </mxCell>
        <mxCell id="rqfXACrkqsJ0wmnOGuuW-75" value="&lt;b&gt;1&lt;/b&gt;" style="edgeLabel;html=1;align=center;verticalAlign=middle;resizable=0;points=[];" vertex="1" connectable="0" parent="1">
          <mxGeometry x="337.9966720534363" y="170.44263677057847" as="geometry">
            <mxPoint x="184" y="303" as="offset" />
          </mxGeometry>
        </mxCell>
        <mxCell id="rqfXACrkqsJ0wmnOGuuW-76" value="&lt;b&gt;M&lt;/b&gt;" style="text;html=1;align=center;verticalAlign=middle;resizable=0;points=[];autosize=1;strokeColor=none;fillColor=none;" vertex="1" parent="1">
          <mxGeometry x="110" y="340" width="30" height="30" as="geometry" />
        </mxCell>
        <mxCell id="rqfXACrkqsJ0wmnOGuuW-77" value="&lt;b&gt;N&lt;/b&gt;" style="text;html=1;align=center;verticalAlign=middle;resizable=0;points=[];autosize=1;strokeColor=none;fillColor=none;" vertex="1" parent="1">
          <mxGeometry x="145" y="468" width="30" height="30" as="geometry" />
        </mxCell>
        <mxCell id="rqfXACrkqsJ0wmnOGuuW-78" value="&lt;b&gt;N&lt;/b&gt;" style="text;html=1;align=center;verticalAlign=middle;resizable=0;points=[];autosize=1;strokeColor=none;fillColor=none;" vertex="1" parent="1">
          <mxGeometry x="210" y="240" width="30" height="30" as="geometry" />
        </mxCell>
        <mxCell id="rqfXACrkqsJ0wmnOGuuW-79" value="&lt;b&gt;N&lt;/b&gt;" style="text;html=1;align=center;verticalAlign=middle;resizable=0;points=[];autosize=1;strokeColor=none;fillColor=none;" vertex="1" parent="1">
          <mxGeometry x="240" y="478" width="30" height="30" as="geometry" />
        </mxCell>
        <mxCell id="rqfXACrkqsJ0wmnOGuuW-80" value="&lt;b&gt;N&lt;/b&gt;" style="text;html=1;align=center;verticalAlign=middle;resizable=0;points=[];autosize=1;strokeColor=none;fillColor=none;" vertex="1" parent="1">
          <mxGeometry x="670" y="468" width="30" height="30" as="geometry" />
        </mxCell>
        <mxCell id="rqfXACrkqsJ0wmnOGuuW-81" value="&lt;b&gt;N&lt;/b&gt;" style="text;html=1;align=center;verticalAlign=middle;resizable=0;points=[];autosize=1;strokeColor=none;fillColor=none;" vertex="1" parent="1">
          <mxGeometry x="500" y="360" width="30" height="30" as="geometry" />
        </mxCell>
      </root>
    </mxGraphModel>
  </diagram>
</mxfile>
